HIERARCHY
ROOT Hips
{
	OFFSET	0.00	0.00	0.00
	CHANNELS 6 Xposition Yposition Zposition Zrotation Xrotation Yrotation
	JOINT LeftUpLeg
	{
		OFFSET	 0.126116	-0.065224	 0.014019
		CHANNELS 3 Zrotation Xrotation Yrotation
		JOINT LeftLeg
		{
			OFFSET	 0.000000	 0.569914	 0.000000
			CHANNELS 3 Zrotation Xrotation Yrotation
			JOINT LeftFoot
			{
				OFFSET	 0.000000	 0.544423	 0.000000
				CHANNELS 3 Zrotation Xrotation Yrotation
				JOINT LeftToeBase
				{
					OFFSET	 0.000000	 0.207117	 0.000000
					CHANNELS 3 Zrotation Xrotation Yrotation
					End Site
					{
						OFFSET	 0.000000	 0.207117	 0.000000
					}
				}
			}
		}
	}
	JOINT RightUpLeg
	{
		OFFSET	-0.124023	-0.065224	 0.008373
		CHANNELS 3 Zrotation Xrotation Yrotation
		JOINT RightLeg
		{
			OFFSET	 0.000000	 0.570047	 0.000000
			CHANNELS 3 Zrotation Xrotation Yrotation
			JOINT RightFoot
			{
				OFFSET	 0.000000	 0.544354	 0.000000
				CHANNELS 3 Zrotation Xrotation Yrotation
				JOINT RightToeBase
				{
					OFFSET	 0.000000	 0.207540	 0.000000
					CHANNELS 3 Zrotation Xrotation Yrotation
					End Site
					{
						OFFSET	 0.000000	 0.207540	 0.000000
					}
				}
			}
		}
	}
	JOINT Spine
	{
		OFFSET	 0.000184	 0.117403	 0.007763
		CHANNELS 3 Zrotation Xrotation Yrotation
		JOINT Spine1
		{
			OFFSET	 0.000000	 0.137269	 0.000000
			CHANNELS 3 Zrotation Xrotation Yrotation
			JOINT Spine2
			{
				OFFSET	 0.000000	 0.156879	 0.000000
				CHANNELS 3 Zrotation Xrotation Yrotation
				JOINT LeftShoulder
				{
					OFFSET	 0.080501	 0.160143	 0.002496
					CHANNELS 3 Zrotation Xrotation Yrotation
					JOINT LeftArm
					{
						OFFSET	 0.000000	 0.164363	 0.000000
						CHANNELS 3 Zrotation Xrotation Yrotation
						JOINT LeftForeArm
						{
							OFFSET	 0.000000	 0.364576	 0.000000
							CHANNELS 3 Zrotation Xrotation Yrotation
							JOINT LeftHand
							{
								OFFSET	 0.000000	 0.360812	 0.000000
								CHANNELS 3 Zrotation Xrotation Yrotation
								JOINT LeftHandIndex1
								{
									OFFSET	 0.000000	 0.086006	 0.000000
									CHANNELS 3 Zrotation Xrotation Yrotation
									JOINT LeftHandIndex2
									{
										OFFSET	 0.000000	 0.047237	 0.000000
										CHANNELS 3 Zrotation Xrotation Yrotation
										JOINT LeftHandIndex3
										{
											OFFSET	-0.004284	 0.038165	 0.000551
											CHANNELS 3 Zrotation Xrotation Yrotation
											End Site
											{
												OFFSET	-0.004284	 0.038165	 0.000551
											}
										}
									}
								}
							}
						}
					}
				}
				JOINT Neck
				{
					OFFSET	 0.000000	 0.176489	 0.000000
					CHANNELS 3 Zrotation Xrotation Yrotation
					JOINT Head
					{
						OFFSET	 0.000000	 0.077941	 0.001747
						CHANNELS 3 Zrotation Xrotation Yrotation
						End Site
						{
							OFFSET	 0.000000	 0.077941	 0.001747
						}
					}
				}
				JOINT RightShoulder
				{
					OFFSET	-0.080363	 0.159706	-0.000306
					CHANNELS 3 Zrotation Xrotation Yrotation
					JOINT RightArm
					{
						OFFSET	 0.000000	 0.164196	 0.000000
						CHANNELS 3 Zrotation Xrotation Yrotation
						JOINT RightForeArm
						{
							OFFSET	 0.000000	 0.365611	 0.000000
							CHANNELS 3 Zrotation Xrotation Yrotation
							JOINT RightHand
							{
								OFFSET	 0.000000	 0.360648	 0.000000
								CHANNELS 3 Zrotation Xrotation Yrotation
								JOINT RightHandIndex1
								{
									OFFSET	 0.000000	 0.069977	 0.000000
									CHANNELS 3 Zrotation Xrotation Yrotation
									JOINT RightHandIndex2
									{
										OFFSET	 0.000000	 0.052305	 0.000000
										CHANNELS 3 Zrotation Xrotation Yrotation
										JOINT RightHandIndex3
										{
											OFFSET	 0.009002	 0.042196	 0.000782
											CHANNELS 3 Zrotation Xrotation Yrotation
											End Site
											{
												OFFSET	 0.009002	 0.042196	 0.000782
											}
										}
									}
								}
							}
						}
					}
				}
			}
		}
	}
}
MOTION
Frames:    8
Frame Time: 0.03333334
 0.002304	 1.265264	-0.025288	-0.364504	-0.015085	-179.993200	-176.842400	 1.717385	-12.796260	 2.954261	-13.673300	 0.096817	-7.062295	 72.521060	 5.690351	 1.292262	 28.425850	-2.713146	 176.199200	-4.644620	 12.651370	-1.556158	-7.524671	 0.163910	 6.621852	 72.706260	-5.225803	-1.288183	 28.361890	 2.710176	-0.009006	 3.118887	 9.886739	-2.260240	 2.456300	 5.057137	 2.194688	-3.034699	-14.884850	-101.478000	 1.740673	 90.353380	 35.479300	 60.088270	-28.859690	 2.131799	 4.450426	 1.372448	-2.319330	 10.627440	 31.631960	-6.580301	 5.266122	 0.000000	 0.000000	 0.000000	 0.000000	 0.000000	 0.000000	 0.000000	 0.089846	-3.783161	 0.005928	 0.027969	 0.863802	-3.709107	 101.796200	-0.213310	-89.955440	-8.160966	 63.134770	-0.629462	-4.843747	 7.381008	 1.593753	-6.883218	-7.561942	 36.409640	 15.208500	 5.323790	 0.000000	 0.000000	 0.000000	 0.000000	 0.000000	 0.000000	 0.000000
 0.002161	 1.265670	-0.019097	-0.284673	-0.073226	-179.995100	-176.667200	 1.828226	-13.634350	 2.941351	-13.615830	 0.093772	-6.956291	 72.358150	 5.601921	 1.292262	 28.425850	-2.713146	 176.209000	-3.992993	 13.506340	-1.670395	-8.069869	 0.148410	 6.698525	 72.605730	-5.264256	-1.288183	 28.361890	 2.710176	 0.087596	 3.514671	 9.815287	-2.267562	 0.873397	 4.877432	 2.318469	-1.034439	-14.580620	-101.478000	 1.740663	 90.353370	 36.372960	 59.427540	-29.548560	 2.128607	 4.430032	 1.378664	-4.280140	 10.399620	 31.186570	-6.580301	 5.266122	 0.000000	 0.000000	 0.000000	 0.000000	 0.000000	 0.000000	 0.000000	 0.089846	-3.783161	 0.005928	 0.035597	 1.118622	-3.645161	 101.796200	-0.213310	-89.955440	-12.243620	 64.525410	 3.140634	-2.797154	 4.270904	 1.375349	-6.228938	-4.908123	 35.883750	 15.208500	 5.323790	 0.000000	 0.000000	 0.000000	 0.000000	 0.000000	 0.000000	 0.000000
 0.001992	 1.266161	-0.012111	-0.193168	-0.138724	-179.996600	-176.470000	 1.937925	-14.581360	 2.920724	-13.523940	 0.088934	-6.827122	 72.161320	 5.499605	 1.292262	 28.425850	-2.713146	 176.215200	-3.330999	 14.472450	-1.769169	-8.540071	 0.134143	 6.725035	 72.419970	-5.274023	-1.288183	 28.361890	 2.710176	 0.153799	 3.958437	 9.661398	-2.193948	-0.908615	 4.522187	 2.359313	 1.209909	-13.732750	-101.478000	 1.740681	 90.353390	 37.291040	 58.681520	-30.273640	 2.142813	 4.408193	 1.400075	-6.495769	 9.977543	 29.509400	-6.580301	 5.266122	 0.000000	 0.000000	 0.000000	 0.000000	 0.000000	 0.000000	 0.000000	 0.089846	-3.783161	 0.005928	 0.043182	 1.437520	-3.441047	 101.796200	-0.213309	-89.955450	-14.090890	 64.353940	 4.907667	-2.798624	 4.234638	 1.335909	-4.837654	-3.592076	 33.713570	 15.208500	 5.323790	 0.000000	 0.000000	 0.000000	 0.000000	 0.000000	 0.000000	 0.000000
 0.001780	 1.266844	-0.003069	-0.080436	-0.222104	-179.998800	-176.224600	 2.046957	-15.809760	 2.881315	-13.348200	 0.079777	-6.640857	 71.879460	 5.359776	 1.292262	 28.425850	-2.713146	 176.212100	-2.559918	 15.724320	-1.862414	-8.982863	 0.119933	 6.684485	 72.098250	-5.247551	-1.288183	 28.361890	 2.710176	 0.129172	 4.515554	 9.393299	-1.922871	-3.173930	 3.767939	 2.187144	 4.068075	-11.640090	-101.478000	 1.740677	 90.353390	 38.362880	 57.738860	-31.206010	 2.199980	 4.382706	 1.458722	-9.422438	 9.217331	 25.090640	-6.580301	 5.266122	 0.000000	 0.000000	 0.000000	 0.000000	 0.000000	 0.000000	 0.000000	 0.089846	-3.783161	 0.005928	 0.048419	 1.898924	-2.920918	 101.796200	-0.213315	-89.955440	-16.156600	 64.100550	 6.875826	-2.835189	 4.181677	 1.228684	-3.821598	-1.753668	 28.318190	 15.208500	 5.323790	 0.000000	 0.000000	 0.000000	 0.000000	 0.000000	 0.000000	 0.000000
 0.001662	 1.267409	 0.003870	-0.004846	-0.285777	-179.999500	-176.050700	 2.097585	-16.754470	 2.837310	-13.151630	 0.069687	-6.487144	 71.632290	 5.251706	 1.292262	 28.425850	-2.713146	 176.196500	-2.009555	 16.684320	-1.917519	-9.244023	 0.111207	 6.603520	 71.814900	-5.199359	-1.288183	 28.361890	 2.710176	-0.011349	 4.892895	 9.093936	-1.528670	-4.771627	 2.894508	 1.801199	 6.098827	-9.035126	-101.478000	 1.740671	 90.353390	 39.064470	 57.085170	-31.953880	 2.278774	 4.363306	 1.532831	-11.687900	 8.518018	 19.516270	-6.580301	 5.266122	 0.000000	 0.000000	 0.000000	 0.000000	 0.000000	 0.000000	 0.000000	 0.089846	-3.783161	 0.005928	 0.044922	 2.268392	-2.268722	 101.796200	-0.213313	-89.955440	-17.348580	 63.883020	 8.001831	-2.895166	 4.135386	 1.093322	-3.832831	-0.166639	 21.702240	 15.208500	 5.323790	 0.000000	 0.000000	 0.000000	 0.000000	 0.000000	 0.000000	 0.000000
 0.001594	 1.267978	 0.010847	 0.049480	-0.348116	-179.999000	-175.902000	 2.119607	-17.706560	 2.781730	-12.902900	 0.057161	-6.326730	 71.358440	 5.145893	 1.292262	 28.425850	-2.713146	 176.157500	-1.466046	 17.648570	-1.970389	-9.494218	 0.102601	 6.492760	 71.527730	-5.135995	-1.288183	 28.361890	 2.710176	-0.289647	 5.157977	 8.691683	-0.931456	-6.028363	 1.708760	 1.122531	 7.710638	-5.372354	-101.478000	 1.740677	 90.353390	 39.550320	 56.585980	-32.708210	 2.393786	 4.344871	 1.636702	-13.812010	 7.771313	 11.700570	-6.580301	 5.266122	 0.000000	 0.000000	 0.000000	 0.000000	 0.000000	 0.000000	 0.000000	 0.089846	-3.783161	 0.005928	 0.030528	 2.589143	-1.350836	 101.796200	-0.213312	-89.955460	-17.919710	 63.666130	 8.539824	-2.988097	 4.083855	 0.903087	-4.796857	 1.717288	 12.582960	 15.208500	 5.323790	 0.000000	 0.000000	 0.000000	 0.000000	 0.000000	 0.000000	 0.000000
 0.001477	 1.268561	 0.017841	 0.097056	-0.411017	 179.993100	-175.747400	 2.297652	-18.662490	 2.798268	-12.976960	 0.060871	-6.229484	 71.253620	 5.072649	 1.292262	 28.425850	-2.713146	 176.111600	-0.965171	 18.616660	-2.004471	-9.655308	 0.096930	 6.367195	 71.195380	-5.081429	-1.288183	 28.361890	 2.710176	-0.673301	 5.212451	 8.364246	-0.140205	-6.619828	 0.269507	 0.174821	 8.470559	-0.827569	-101.478000	 1.740671	 90.353390	 39.635720	 56.379650	-33.317350	 2.548206	 4.326083	 1.773499	-15.414150	 7.017449	 2.025715	-6.580301	 5.266122	 0.000000	 0.000000	 0.000000	 0.000000	 0.000000	 0.000000	 0.000000	 0.089846	-3.783161	 0.005928	 0.005086	 2.750362	-0.211865	 101.796200	-0.213321	-89.955450	-17.462580	 63.493080	 8.127293	-3.116590	 4.025155	 0.653730	-6.940457	 4.052373	 1.435922	 15.208500	 5.323790	 0.000000	 0.000000	 0.000000	 0.000000	 0.000000	 0.000000	 0.000000
 0.001390	 1.269099	 0.024086	 0.148251	-0.469808	 179.984900	-175.604100	 2.416177	-19.516130	 2.794361	-12.959460	 0.059984	-6.115313	 71.118100	 4.990177	 1.292262	 28.425850	-2.713146	 176.077500	-0.534636	 19.480610	-2.027169	-9.762515	 0.093105	 6.237932	 70.882170	-5.027992	-1.288183	 28.361890	 2.710176	-0.988168	 5.039674	 8.016769	 0.600127	-6.398397	-1.061750	-0.720667	 8.175046	 3.389666	-101.478000	 1.740679	 90.353390	 39.204900	 56.471440	-33.480510	 2.690992	 4.309590	 1.899855	-16.064270	 6.344457	-7.022319	-6.580301	 5.266122	 0.000000	 0.000000	 0.000000	 0.000000	 0.000000	 0.000000	 0.000000	 0.089846	-3.783161	 0.005928	-0.019843	 2.689902	 0.845177	 101.796200	-0.213327	-89.955440	-16.165200	 63.439950	 6.932563	-3.235417	 3.972230	 0.423522	-9.545946	 6.503541	-8.722393	 15.208500	 5.323790	 0.000000	 0.000000	 0.000000	 0.000000	 0.000000	 0.000000	 0.000000
